<?xml version="1.0" encoding="UTF-8" standalone="no"?>
<!-- Created with Inkscape (http://www.inkscape.org/) -->

<svg
   version="1.1"
   id="svg824"
   xml:space="preserve"
   width="1478.355"
   height="2666.6667"
   viewBox="0 0 1478.355 2666.6668"
   sodipodi:docname="Map-blend-0.4.0.svg"
   inkscape:version="1.1.1 (c3084ef, 2021-09-22)"
   xmlns:inkscape="http://www.inkscape.org/namespaces/inkscape"
   xmlns:sodipodi="http://sodipodi.sourceforge.net/DTD/sodipodi-0.dtd"
   xmlns="http://www.w3.org/2000/svg"
   xmlns:svg="http://www.w3.org/2000/svg"><defs
     id="defs828"><clipPath
       clipPathUnits="userSpaceOnUse"
       id="clipPath848"><path
         d="M 0,1222 H 2000 V 0 H 0 Z"
         id="path846" /></clipPath></defs><sodipodi:namedview
     id="namedview826"
     pagecolor="#505050"
     bordercolor="#eeeeee"
     borderopacity="1"
     inkscape:pageshadow="0"
     inkscape:pageopacity="0"
     inkscape:pagecheckerboard="0"
     showgrid="false"
     inkscape:zoom="0.25405612"
     inkscape:cx="458.5601"
     inkscape:cy="1389.4568"
     inkscape:window-width="1280"
     inkscape:window-height="772"
     inkscape:window-x="0"
     inkscape:window-y="0"
     inkscape:window-maximized="0"
     inkscape:current-layer="g844"
     fit-margin-top="0"
     fit-margin-left="0"
     fit-margin-right="0"
     fit-margin-bottom="0" /><g
     id="g830"
     inkscape:groupmode="layer"
     inkscape:label="Map - layers"
     transform="matrix(1.3333333,0,0,-1.3333333,-608.49062,2156.4008)"><g
       id="g1361"><g
         id="g1362"
         transform="rotate(-90,1009.5905,623.39757)"><g
           id="g842"><rect
             id="rect1157"
             width="2000.9286"
             height="1109.2317"
             x="15.687425"
             y="-1179.4067"
             transform="scale(1,-1)"
             ry="0"
             style="fill:#1a1a1a;fill-opacity:0" /><g
             id="g844"
             clip-path="url(#clipPath848)"
             transform="translate(4.6280945,-4.6280945)"
             style="fill:#000000;fill-opacity:0.01548673"><g
               id="g1052"
               transform="translate(1392.1299,477.13015)"
               style="fill:#000000;fill-opacity:0.01548673"><path
                 d="M 19.961233,41.918589 23.638801,69.383938 88.443062,75.556661 77.5824,13.1822 96.177184,12.595416 89.007089,-28.56785 29.995877,-19.154075 32.396079,2.509065 13.637723,4.5806781 Z"
                 style="fill:#000000;fill-opacity:0.01548673;stroke:#1a1a1a;stroke-width:5;stroke-linecap:butt;stroke-linejoin:miter;stroke-miterlimit:10;stroke-dasharray:none;stroke-opacity:0"
                 id="toilet-0"
                 sodipodi:nodetypes="cccccccccc" /></g><g
               style="fill:#000000;fill-opacity:0.01548673"
               id="g4885"><g
                 id="g1222"
                 transform="translate(1463.0139,579.3715)"
                 style="fill:#000000;fill-opacity:0.01548673"><path
                   d="m 27.031251,-0.81912881 -4.469068,-35.77801419 -6.581508,-39.302538 17.628251,-2.123717 -6.725264,-63.409702 33.441161,-3.47402 0.798133,-15.94553 37.694505,-3.93565 0.15648,-15.1572 47.357939,-4.64842 -2.20524,-15.16215 73.31119,-8.05223 -2.87461,-32.31638 41.03307,-3.8641 4.75974,40.44548 50.48244,-7.00691 20.54823,79.25156 -40.48233,9.96985 11.46835,65.200955 -33.59539,5.805326 5.95608,57.8767008 -28.00883,2.5375602 -6.64588,-47.910484 z"
                   style="fill:#000000;fill-opacity:0.01548673;fill-rule:nonzero;stroke:none"
                   id="visitorcenter"
                   sodipodi:nodetypes="cccccccccccccccccccccccc" /></g></g><g
               id="g1054"
               transform="translate(1054.5805,541.5164)"
               style="fill:#000000;fill-opacity:0.01548673"><path
                 d="m 12.270783,-6.6931542 -23.461,-36.5701348 25.642525,-107.772501 81.474166,-15.48677 65.099526,89.74156 -9.597,51.187 z"
                 style="fill:#000000;fill-opacity:0.01548673;fill-rule:nonzero;stroke:none"
                 id="hall1"
                 sodipodi:nodetypes="ccccccc" /></g><g
               id="g1056"
               transform="translate(820.32427,674.83166)"
               style="fill:#000000;fill-opacity:0.01548673"><path
                 d="m -3.4560481,-6.3563343 -0.1648232,-139.1204957 225.3603413,11.79322 6.587,65.827997 z"
                 style="fill:#000000;fill-opacity:0.01548673;fill-rule:nonzero;stroke:none"
                 id="hall2"
                 sodipodi:nodetypes="ccccc" /></g><g
               id="g1058"
               transform="translate(837.1774,821.54294)"
               style="fill:#000000;fill-opacity:0.01548673"><path
                 d="M -4.8051575,-0.54804566 277.472,-106.243 l -4.051,-53.717 -287.598,24.527 z"
                 style="fill:#000000;fill-opacity:0.01548673;fill-rule:nonzero;stroke:none"
                 id="hall3"
                 sodipodi:nodetypes="ccccc" /></g><g
               id="g1060"
               transform="translate(605.446,932.6112)"
               style="fill:#000000;fill-opacity:0.01548673"><path
                 d="M 63.098491,-8.9389529 16.732029,-99.961189 155.694,-185.553 l 69.316,62.917 17.063,68.25 z"
                 style="fill:#000000;fill-opacity:0.01548673;fill-rule:nonzero;stroke:none"
                 id="hall7"
                 sodipodi:nodetypes="cccccc" /></g><g
               id="g1062"
               transform="translate(546.03135,1009.9445)"
               style="fill:#000000;fill-opacity:0.01548673;stroke:none;stroke-opacity:1"><path
                 d="m 76.429379,-78.785079 -40.0776,-75.530341 39.7949,-22.97907 46.366461,91.022237 c -15.53676,1.514918 -30.796037,4.461492 -46.083761,7.487174 z"
                 style="fill:#000000;fill-opacity:0.01548673;fill-rule:nonzero;stroke:none;stroke-opacity:1"
                 sodipodi:nodetypes="ccccc"
                 id="toilet-2" /></g><g
               id="g1064"
               transform="translate(354.7134,806.0312)"
               style="fill:#000000;fill-opacity:0.01548673"><path
                 d="M 16.077942,-5.359314 107.41507,37.816029 237.70695,27.598638 242.32395,4.438781 276.197,-18.129 c 0,0 -1.13583,-91.98403 -14.19283,-112.46403 l -31.66217,-17.23578 -8.18444,-22.76717 -132.524932,10.86439 -80.64581,59.69069 z"
                 style="fill:#000000;fill-opacity:0.01548673;fill-rule:nonzero;stroke:none"
                 id="audi"
                 sodipodi:nodetypes="ccccccccccc" /></g><g
               id="g1066"
               transform="translate(514.32022,592.58368)"
               style="fill:#000000;fill-opacity:0.01548673"><path
                 d="M 22.063144,-0.66858013 238.998,74.648 261.869,0 80.427343,-100.60614 Z"
                 style="fill:#000000;fill-opacity:0.01548673;fill-rule:nonzero;stroke:none"
                 id="hall6"
                 sodipodi:nodetypes="ccccc" /></g><g
               id="g1068"
               transform="translate(613.21555,443.35975)"
               style="fill:#000000;fill-opacity:0.01548673"><path
                 d="M 10.028702,2.6743205 173.25286,139.34964 244.99322,35.665751 l -135.92507,-92.701 z"
                 style="fill:#000000;fill-opacity:0.01548673;fill-rule:nonzero;stroke:none"
                 id="hall5"
                 sodipodi:nodetypes="ccccc" /></g><g
               id="g1070"
               transform="translate(230.97336,461.70798)"
               style="fill:#000000;fill-opacity:0.01548673"><path
                 d="m 0,0 -4.6590329,-164.02535 -19.1000401,2.24313 11.878186,-58.81241 4.7696057,-0.744 L -8,-249 l -26,-2 -15,-58 119.657589,-47.70125 26.463618,-4.72345 42.924803,49.38162 -15.92543,14.36466 122.16951,196.26678 C 246.29009,-101.41164 173,22 0,0"
                 style="fill:#000000;fill-opacity:0.01548673;fill-rule:nonzero;stroke:none"
                 id="openair"
                 sodipodi:nodetypes="cccccccccccccc" /></g><g
               id="g1072"
               transform="rotate(58.143084,-582.26497,578.84943)"
               style="opacity:1;fill:#000000;fill-opacity:0.860619"><path
                 d="M 0,0 -48.529448,60.418944 -16.682999,80.740185 -51.283919,139.80549 57,171 96.546891,93.585061 114.8904,103.28054 149.32751,22.28902 v 0 0 L 135.80864,14.779706 133.01857,5.4292702 106.49112,-11.966062 91.577513,12.362313 66.313445,1.0905727 55.073366,25.915715 Z"
                 style="fill:#000000;fill-opacity:0.02;fill-rule:nonzero;stroke:none"
                 id="canteen"
                 sodipodi:nodetypes="ccccccccccccccccc" /></g><g
               id="g1074"
               transform="translate(370.766,845)"
               style="fill:#000000;fill-opacity:0.01548673"><path
                 d="M -24.135078,0.85241056 C -42.143912,-11.035626 -62.943667,-21.045742 -82.422866,-30.165933 c -2.222583,-37.513901 -5.950775,-74.954197 -9.114978,-112.404537 l 52.318762,-37.41295 c 5.649132,59.7816 10.233029,121.665357 15.084004,180.83583056 z"
                 style="fill:#000000;fill-opacity:0.01548673;fill-rule:nonzero;stroke:none"
                 id="toilet-1"
                 sodipodi:nodetypes="ccccc" /></g><g
               id="g1076"
               style="fill:#000000;fill-opacity:0.01548673;stroke:none"><path
                 style="fill:#000000;stroke:none;stroke-width:0.75px;stroke-linecap:butt;stroke-linejoin:miter;stroke-opacity:1;fill-opacity:0.01548673"
                 d="m 857.73638,816.39383 24.60885,60.19188 38.24348,-22.9461 -21.28328,-54.53848 z"
                 id="toilet-3" /></g><g
               id="g1078"
               style="fill:#000000;fill-opacity:0.01548673"><path
                 style="fill:#000000;stroke:none;stroke-width:0.75px;stroke-linecap:butt;stroke-linejoin:miter;stroke-opacity:1;fill-opacity:0.01548673"
                 d="m 722.2837,386.3245 -99.03944,59.70957 61.15417,50.85231 68.13155,-91.39598 z"
                 id="hall10" /></g><g
               id="g1080"
               style="fill:#000000;fill-opacity:0.01548673"><path
                 style="fill:#000000;fill-opacity:0.01548673;stroke:none;stroke-width:0.75px;stroke-linecap:butt;stroke-linejoin:miter;stroke-opacity:1"
                 d="m 594.74756,491.97754 -58.3642,99.93756 67.32172,23.41937 55.43483,-87.87197 z"
                 id="hall9"
                 sodipodi:nodetypes="ccccc" /></g><g
               id="g1082"
               style="fill:#000000;fill-opacity:0.01548673"><path
                 style="fill:#000000;fill-opacity:0.01548673;stroke:none;stroke-width:0.75px;stroke-linecap:butt;stroke-linejoin:miter;stroke-opacity:1"
                 d="m 816.7034,529.35483 0.16482,139.1205 67.7912,-17.55715 0.0746,-120.84432 z"
                 id="hall4"
                 sodipodi:nodetypes="ccccc" /></g><g
               id="g1084"
               style="fill:#000000;fill-opacity:0.01548673"><path
                 style="fill:#000000;fill-opacity:0.01548673;stroke:none;stroke-width:0.75px;stroke-linecap:butt;stroke-linejoin:miter;stroke-opacity:1"
                 d="m 823.0004,686.10994 9.37184,134.88495 64.3373,-25.62536 -6.48703,-114.60438 z"
                 id="hall8"
                 sodipodi:nodetypes="ccccc"
                 inkscape:transform-center-x="74.921922"
                 inkscape:transform-center-y="10.241126" /></g><g
               id="g1995"><path
                 id="foyer"
                 style="fill:#000000;fill-opacity:0.02;stroke-width:0.751177;stroke-linecap:round;stroke-linejoin:round;stop-color:#000000"
                 transform="matrix(0,1,1,0,0,0)"
                 d="m 534.82324,1066.8513 -1.2099,-8.0518 5.03636,-10.8752 67.28686,6.9075 16.13621,-57.60902 49.76586,3.12212 -7.83424,103.9536 8.07782,1.926 -46.57405,109.6757 -80.21014,-14.7713 -30.559,-4.7257 z"
                 sodipodi:nodetypes="cccccccccccc" /></g><g
               id="g2150"><path
                 style="fill:#000000;stroke:none;stroke-width:0.75px;stroke-linecap:butt;stroke-linejoin:miter;stroke-opacity:1;fill-opacity:0.02"
                 d="m 810.28343,563.30791 0.59408,107.37631 6.76282,1.9537 c 0,0 2.40458,0.45086 2.55488,2.10399 0.1503,1.65314 0,13.52568 0,13.52568 l -2.55488,0.30057 10.51995,118.57507 -59.96377,-54.10269 -16.23082,10.51997 -9.91883,-16.23081 3.90742,-3.60685 -3.15599,-47.33986 -3.90742,-3.60684 -7.81484,0.45085 -0.75142,-12.1731 3.60685,-0.45086 17.2828,5.86112 3.75713,-2.10399 9.16739,-24.04564 0.1503,-5.1097 -2.7051,-2.85542 18.1845,-55.45527 -0.1503,-3.0057 6.8502,-11.17905 3.06863,-0.24263 7.81485,-11.87254 6.1617,-0.15028 z"
                 id="plaza" /></g><g
               id="g1715"><path
                 style="fill:#000000;stroke:none;stroke-width:0.75px;stroke-linecap:butt;stroke-linejoin:miter;stroke-opacity:1;fill-opacity:0.02"
                 d="m 622.85162,688.72586 119.94667,7.65713 3.15599,47.33986 -115.29104,28.44538 c 0,0 -1.06522,-33.02187 -1.4203,-44.02917 -0.35507,-11.00728 -6.39132,-39.4132 -6.39132,-39.4132 z"
                 id="audifoyer" /></g></g></g></g></g></g></svg>
