<?xml version="1.0" encoding="UTF-8" standalone="no"?>
<!-- Created with Inkscape (http://www.inkscape.org/) -->

<svg
   version="1.1"
   id="svg824"
   xml:space="preserve"
   width="1478.355"
   height="2666.6667"
   viewBox="0 0 1478.355 2666.6668"
   sodipodi:docname="Map - mask.svg"
   inkscape:version="1.1.1 (c3084ef, 2021-09-22)"
   xmlns:inkscape="http://www.inkscape.org/namespaces/inkscape"
   xmlns:sodipodi="http://sodipodi.sourceforge.net/DTD/sodipodi-0.dtd"
   xmlns="http://www.w3.org/2000/svg"
   xmlns:svg="http://www.w3.org/2000/svg"><defs
     id="defs828"><clipPath
       clipPathUnits="userSpaceOnUse"
       id="clipPath848"><path
         d="M 0,1222 H 2000 V 0 H 0 Z"
         id="path846" /></clipPath></defs><sodipodi:namedview
     id="namedview826"
     pagecolor="#505050"
     bordercolor="#eeeeee"
     borderopacity="1"
     inkscape:pageshadow="0"
     inkscape:pageopacity="0"
     inkscape:pagecheckerboard="0"
     showgrid="false"
     inkscape:zoom="0.16205374"
     inkscape:cx="1261.9271"
     inkscape:cy="1443.9654"
     inkscape:window-width="1312"
     inkscape:window-height="872"
     inkscape:window-x="0"
     inkscape:window-y="0"
     inkscape:window-maximized="0"
     inkscape:current-layer="g1226"
     fit-margin-top="0"
     fit-margin-left="0"
     fit-margin-right="0"
     fit-margin-bottom="0" /><g
     id="g830"
     inkscape:groupmode="layer"
     inkscape:label="Map - layers"
     transform="matrix(1.3333333,0,0,-1.3333333,-608.49062,2156.4008)"><g
       id="g1361"><g
         id="g1362"
         transform="rotate(-90,1009.5905,623.39757)"><g
           id="g838"
           transform="translate(1373.3036,474.9972)"><path
             d="m 0,0 10.664,70.382 76.781,10.664 4.265,21.328 222.878,-39.456 7.464,51.187 38.391,-6.399 -10.664,-62.917 34.125,-3.199 -10.664,-68.25 39.456,-7.465 -17.062,-91.71 -50.121,7.465 -6.398,-43.723 -53.32,9.598 5.332,29.859 -84.779,12.967 -5.865,-9.768 -30.926,13.863 -12.796,-28.792 -130.101,58.652 5.332,41.589 -17.062,3.199 3.199,24.528 z"
             style="fill:none;stroke:#1a1a1a;stroke-width:5;stroke-linecap:butt;stroke-linejoin:miter;stroke-miterlimit:10;stroke-dasharray:none;stroke-opacity:0"
             id="path840" /></g><g
           id="g842"><rect
             id="rect1157"
             width="2000.9286"
             height="1109.2317"
             x="15.687425"
             y="-1179.4067"
             transform="scale(1,-1)"
             ry="0"
             style="fill:#1a1a1a;fill-opacity:0" /><g
             id="g844"
             clip-path="url(#clipPath848)"
             transform="translate(4.6280945,-4.6280945)"><g
               id="g850"
               transform="translate(1465.0139,577.3715)"><path
                 d="M 0,0 C -5.883,1.145 -14.313,2.509 -24.527,3.199 -38.309,4.13 -48.579,4.824 -59.718,2.133 -64.64,0.944 -70.007,-0.973 -98.109,-20.262 c -26.71,-18.333 -24.296,-18.273 -30.925,-21.328 -21.023,-9.687 -40.908,-8.272 -52.254,-7.464 -19.521,1.389 -34.775,2.475 -45.855,13.863 -8.077,8.301 -11.549,19.623 -15.996,34.125 -4.204,13.707 -3.245,17.755 -7.465,25.593 -6.52,12.11 -17.583,18.744 -25.593,22.395"
                 style="fill:none;stroke:#1a1a1a;stroke-width:5;stroke-linecap:butt;stroke-linejoin:miter;stroke-miterlimit:10;stroke-dasharray:none;stroke-opacity:0"
                 id="path852" /></g><g
               id="g854"
               transform="translate(1495.9395,356.6269)"><path
                 d="m 0,0 c -2.512,-3.887 -6.87,-9.35 -13.863,-12.797 -9.23,-4.549 -17.502,-2.851 -36.258,-1.066 -10.286,0.979 -20.624,1.319 -30.925,2.133 -41.65,3.289 -38.307,1.226 -47.988,3.199 -7.874,1.604 -32.365,6.897 -51.187,25.593 -10.173,10.105 -10.846,16.333 -23.461,41.59 -8.465,16.948 -20.5,41.044 -38.391,65.05 -18.594,24.952 -38.313,42.827 -51.187,54.387 -10.087,9.058 -18.984,16.224 -25.593,21.328"
                 style="fill:none;stroke:#1a1a1a;stroke-width:5;stroke-linecap:butt;stroke-linejoin:miter;stroke-miterlimit:10;stroke-dasharray:none;stroke-opacity:0"
                 id="path856" /></g><g
               id="g858"
               transform="translate(1112,668)"><path
                 d="m 0,0 v 15.345 l -18.965,8.319 v 10.082 l -206.621,88.879 24.954,63.463 -45.916,30.119 -26.95,-74.22 -15.971,6.453 12.976,61.313 -226.584,54.858 -41.923,-80.674 187.656,-106.49 64.881,63.464"
                 style="fill:none;stroke:#1a1a1a;stroke-width:5;stroke-linecap:butt;stroke-linejoin:miter;stroke-miterlimit:10;stroke-dasharray:none;stroke-opacity:0"
                 id="path860" /></g><g
               id="g862"
               transform="translate(765.4561,827.9753)"><path
                 d="m 0,0 -14.93,-135.433 302.858,-24.527 4.265,46.91"
                 style="fill:none;stroke:#1a1a1a;stroke-width:5;stroke-linecap:butt;stroke-linejoin:miter;stroke-miterlimit:10;stroke-dasharray:none;stroke-opacity:0"
                 id="path864" /></g><g
               id="g866"
               transform="translate(746.261,675.4802)"><path
                 d="m 0,0 2.133,-153.561 243.139,11.73 7.465,71.449 z"
                 style="fill:none;stroke:#1a1a1a;stroke-width:5;stroke-linecap:butt;stroke-linejoin:miter;stroke-miterlimit:10;stroke-dasharray:none;stroke-opacity:0"
                 id="path868" /></g><g
               id="g870"
               transform="translate(271.7134,814.1121)"><path
                 d="m 0,0 94.91,45.855 145.03,-10.664 4.617,-29.859 31.64,-23.461 c 0,0 3.086,-92.777 -12.853,-120.503 l -33.002,-18.129 -6.398,-24.107 -145.03,11.311 -89.578,65.05 z"
                 style="fill:none;stroke:#1a1a1a;stroke-width:5;stroke-linecap:butt;stroke-linejoin:miter;stroke-miterlimit:10;stroke-dasharray:none;stroke-opacity:0"
                 id="path872" /></g><g
               id="g874"
               transform="translate(548.1436,781.0924)"><path
                 d="M 0,0 121.688,-33.097 117.071,-78.952 -6.388,-86.099"
                 style="fill:none;stroke:#1a1a1a;stroke-width:5;stroke-linecap:butt;stroke-linejoin:miter;stroke-miterlimit:10;stroke-dasharray:none;stroke-opacity:0"
                 id="path876" /></g><g
               id="g878"
               transform="translate(1022.2007,499.9268)"><path
                 d="m 0,0 23.461,41.59 151.428,-25.594 9.598,-51.187 -63.984,-98.109 -95.976,14.93 z"
                 style="fill:none;stroke:#1a1a1a;stroke-width:5;stroke-linecap:butt;stroke-linejoin:miter;stroke-miterlimit:10;stroke-dasharray:none;stroke-opacity:0"
                 id="path880" /></g><g
               id="g882"
               transform="translate(512.5364,593.3675)"><path
                 d="M 0,0 238.998,74.648 261.869,0 65.05,-111.972 Z"
                 style="fill:none;stroke:#1a1a1a;stroke-width:5;stroke-linecap:butt;stroke-linejoin:miter;stroke-miterlimit:10;stroke-dasharray:none;stroke-opacity:0"
                 id="path884" /></g><g
               id="g886"
               transform="translate(606,436.3486)"><path
                 d="M 0,0 161.964,131.289 234.05,31.907 96.887,-54.349 Z"
                 style="fill:none;stroke:#1a1a1a;stroke-width:5;stroke-linecap:butt;stroke-linejoin:miter;stroke-miterlimit:10;stroke-dasharray:none;stroke-opacity:0"
                 id="path888" /></g><g
               id="g890"
               transform="translate(245.3597,859.9673)"><path
                 d="m 0,0 -59.9,-31.992 -11.855,-116.237 60.864,-43.723 z"
                 style="fill:none;stroke:#1a1a1a;stroke-width:5;stroke-linecap:butt;stroke-linejoin:miter;stroke-miterlimit:10;stroke-dasharray:none;stroke-opacity:0"
                 id="path892" /></g><g
               id="g894"
               transform="translate(316.5022,1094.5751)"><path
                 d="m 0,0 55.453,11.73 103.44,-129.034 -70.795,-58.958 z"
                 style="fill:none;stroke:#1a1a1a;stroke-width:5;stroke-linecap:butt;stroke-linejoin:miter;stroke-miterlimit:10;stroke-dasharray:none;stroke-opacity:0"
                 id="path896" /></g><g
               id="g898"
               transform="translate(327.1661,937.8144)"><path
                 d="M 0,0 30.37,12.797 50.121,-26.66 25.06,-52.174 Z"
                 style="fill:none;stroke:#1a1a1a;stroke-width:5;stroke-linecap:butt;stroke-linejoin:miter;stroke-miterlimit:10;stroke-dasharray:none;stroke-opacity:0"
                 id="path900" /></g><g
               id="g902"
               transform="translate(340.3832,910.2972)"><path
                 d="m 0,0 -30.279,-17.272 -18.129,31.822 -55.986,-25.049 -49.588,60.411 36.258,17.062 -42.656,62.917 111.972,34.125 L -7.885,86.169 19.967,96.549 58.944,18.565 42.202,7.828"
                 style="fill:none;stroke:#1a1a1a;stroke-width:5;stroke-linecap:butt;stroke-linejoin:miter;stroke-miterlimit:10;stroke-dasharray:none;stroke-opacity:0"
                 id="path904" /></g><g
               id="g906"
               transform="translate(942.4141,767.7307)"><path
                 d="m 0,0 v -90.728 l -7.661,-52.71"
                 style="fill:none;stroke:#1a1a1a;stroke-width:5;stroke-linecap:butt;stroke-linejoin:miter;stroke-miterlimit:10;stroke-dasharray:none;stroke-opacity:0"
                 id="path908" /></g><g
               id="g910"
               transform="translate(929.3072,531.5164)"><path
                 d="M 0,0 V -9.598 L 61.042,-34.236"
                 style="fill:none;stroke:#1a1a1a;stroke-width:5;stroke-linecap:butt;stroke-linejoin:miter;stroke-miterlimit:10;stroke-dasharray:none;stroke-opacity:0"
                 id="path912" /></g><g
               id="g914"
               transform="translate(1075.7782,688.277)"><path
                 d="M 0,0 117.088,-55.033 90.644,-202.727"
                 style="fill:none;stroke:#1a1a1a;stroke-width:5;stroke-linecap:butt;stroke-linejoin:miter;stroke-miterlimit:10;stroke-dasharray:none;stroke-opacity:0"
                 id="path916" /></g><g
               id="g918"
               transform="translate(770.4063,454.7361)"><path
                 d="M 0,0 12.112,-15.996 49.436,9.597 v 57.586"
                 style="fill:none;stroke:#1a1a1a;stroke-width:5;stroke-linecap:butt;stroke-linejoin:miter;stroke-miterlimit:10;stroke-dasharray:none;stroke-opacity:0"
                 id="path920" /></g><g
               id="g922"
               transform="translate(845.7382,806.3206)"><path
                 d="m 0,0 -12.271,-118.044 -6.338,-35.317"
                 style="fill:none;stroke:#1a1a1a;stroke-width:5;stroke-linecap:butt;stroke-linejoin:miter;stroke-miterlimit:10;stroke-dasharray:none;stroke-opacity:0"
                 id="path924" /></g><g
               id="g926"
               transform="translate(858.7932,801.1094)"><path
                 d="M 0,0 19.701,47.127 0,58.858"
                 style="fill:none;stroke:#1a1a1a;stroke-width:5;stroke-linecap:butt;stroke-linejoin:miter;stroke-miterlimit:10;stroke-dasharray:none;stroke-opacity:0"
                 id="path928" /></g><g
               id="g930"
               transform="translate(803.0577,873.3549)"><path
                 d="M 0,0 -23.772,8.693"
                 style="fill:none;stroke:#1a1a1a;stroke-width:5;stroke-linecap:butt;stroke-linejoin:miter;stroke-miterlimit:10;stroke-dasharray:none;stroke-opacity:0"
                 id="path932" /></g><g
               id="g934"
               transform="translate(289.6653,822.7855)"><path
                 d="M 0,0 -22.217,32.916 -4.554,37.182 15.867,70.24"
                 style="fill:none;stroke:#1a1a1a;stroke-width:5;stroke-linecap:butt;stroke-linejoin:miter;stroke-miterlimit:10;stroke-dasharray:none;stroke-opacity:0"
                 id="path936" /></g><g
               id="g938"
               transform="translate(235.989,899.7984)"><path
                 d="m 0,0 -86.912,-50.495 -41.589,20.261 -47.988,-100.241 207.948,-155.683 29.859,5.321 79.98,-56.78 c 0,0 78.087,-1.26 27.313,-75.147 0,0 6.812,-8.838 3.612,-31.232 l 18.129,9.597 5.253,-9.597 19.274,9.597 3.2,-6.398 45.049,21.328 34.931,-53.32 -50.121,-44.789 8.531,-7.465 11.73,6.399 7.454,-6.399 11.742,8.532 5.683,-8.532 12.689,10.993 6.395,-8.712 12.557,8.383 15.763,-10.664 -6.166,-8.531 6.166,-6.069 -5.099,-6.728 4.265,-5.332 -5.332,-11.73 19.195,-8.531 9.598,7.465 8.384,-7.465 17.209,15.996"
                 style="fill:none;stroke:#1a1a1a;stroke-width:5;stroke-linecap:butt;stroke-linejoin:miter;stroke-miterlimit:10;stroke-dasharray:none;stroke-opacity:0"
                 id="path940" /></g><g
               id="g942"
               transform="translate(674.6024,574.7055)"><path
                 d="M 0,0 8.946,-19.661"
                 style="fill:none;stroke:#1a1a1a;stroke-width:5;stroke-linecap:butt;stroke-linejoin:miter;stroke-miterlimit:10;stroke-dasharray:none;stroke-opacity:0"
                 id="path944" /></g><g
               id="g946"
               transform="translate(704.1432,591.5116)"><path
                 d="M 0,0 7.801,-11.886"
                 style="fill:none;stroke:#1a1a1a;stroke-width:5;stroke-linecap:butt;stroke-linejoin:miter;stroke-miterlimit:10;stroke-dasharray:none;stroke-opacity:0"
                 id="path948" /></g><g
               id="g950"
               transform="translate(690.9932,584.0304)"><path
                 d="M 0,0 9.211,-14.568"
                 style="fill:none;stroke:#1a1a1a;stroke-width:5;stroke-linecap:butt;stroke-linejoin:miter;stroke-miterlimit:10;stroke-dasharray:none;stroke-opacity:0"
                 id="path952" /></g><g
               id="g954"
               transform="translate(466.1497,993.2672)"><path
                 d="m 0,0 64.699,-37.324 -40.989,-78.242 -11.98,-14.932 -54.738,27.057 10.664,21.328 26.644,53.67"
                 style="fill:none;stroke:#1a1a1a;stroke-width:5;stroke-linecap:butt;stroke-linejoin:miter;stroke-miterlimit:10;stroke-dasharray:none;stroke-opacity:0"
                 id="path956" /></g><g
               id="g958"
               transform="translate(457.5431,958.9694)"><path
                 d="M 0,0 58.376,-29.686"
                 style="fill:none;stroke:#1a1a1a;stroke-width:5;stroke-linecap:butt;stroke-linejoin:miter;stroke-miterlimit:10;stroke-dasharray:none;stroke-opacity:0"
                 id="path960" /></g><g
               id="g962"
               transform="translate(475.3956,975.1384)"><path
                 d="M 0,0 51.72,-29.326"
                 style="fill:none;stroke:#1a1a1a;stroke-width:5;stroke-linecap:butt;stroke-linejoin:miter;stroke-miterlimit:10;stroke-dasharray:none;stroke-opacity:0"
                 id="path964" /></g><g
               id="g966"
               transform="translate(445.5364,934.7837)"><path
                 d="M 0,0 58.587,-29.854"
                 style="fill:none;stroke:#1a1a1a;stroke-width:5;stroke-linecap:butt;stroke-linejoin:miter;stroke-miterlimit:10;stroke-dasharray:none;stroke-opacity:0"
                 id="path968" /></g><g
               id="g970"
               transform="translate(440.2044,923.0533)"><path
                 d="M 0,0 58.587,-29.854"
                 style="fill:none;stroke:#1a1a1a;stroke-width:5;stroke-linecap:butt;stroke-linejoin:miter;stroke-miterlimit:10;stroke-dasharray:none;stroke-opacity:0"
                 id="path972" /></g><g
               id="g974"
               transform="translate(434.8725,909.1901)"><path
                 d="M 0,0 58.587,-29.854"
                 style="fill:none;stroke:#1a1a1a;stroke-width:5;stroke-linecap:butt;stroke-linejoin:miter;stroke-miterlimit:10;stroke-dasharray:none;stroke-opacity:0"
                 id="path976" /></g><g
               id="g978"
               transform="translate(149.0775,849.3033)"><path
                 d="M 0,0 -16.983,43.722"
                 style="fill:none;stroke:#1a1a1a;stroke-width:5;stroke-linecap:butt;stroke-linejoin:miter;stroke-miterlimit:10;stroke-dasharray:none;stroke-opacity:0"
                 id="path980" /></g><g
               id="g982"
               transform="translate(71.7418,794.895)"><path
                 d="M 0,0 101.863,-72.618"
                 style="fill:none;stroke:#1a1a1a;stroke-width:5;stroke-linecap:butt;stroke-linejoin:miter;stroke-miterlimit:10;stroke-dasharray:none;stroke-opacity:0"
                 id="path984" /></g><g
               id="g986"
               transform="translate(98.68,775.6907)"><path
                 d="M 0,0 50.397,26.09 46.905,-33.438"
                 style="fill:none;stroke:#1a1a1a;stroke-width:5;stroke-linecap:butt;stroke-linejoin:miter;stroke-miterlimit:10;stroke-dasharray:none;stroke-opacity:0"
                 id="path988" /></g><g
               id="g990"
               transform="translate(149.0775,801.7805)"><path
                 d="M 0,0 4.063,49.883"
                 style="fill:none;stroke:#1a1a1a;stroke-width:5;stroke-linecap:butt;stroke-linejoin:miter;stroke-miterlimit:10;stroke-dasharray:none;stroke-opacity:0"
                 id="path992" /></g><g
               id="g994"
               transform="translate(151.9621,837.1987)"><path
                 d="M 0,0 32.2,-21.95"
                 style="fill:none;stroke:#1a1a1a;stroke-width:5;stroke-linecap:butt;stroke-linejoin:miter;stroke-miterlimit:10;stroke-dasharray:none;stroke-opacity:0"
                 id="path996" /></g><g
               id="g998"
               transform="translate(245.3597,849.3033)"><path
                 d="M 0,0 22.088,6.398"
                 style="fill:none;stroke:#1a1a1a;stroke-width:5;stroke-linecap:butt;stroke-linejoin:miter;stroke-miterlimit:10;stroke-dasharray:none;stroke-opacity:0"
                 id="path1000" /></g><g
               id="g1002"
               transform="translate(238.442,738.0427)"><path
                 d="M 0,0 22.607,-15.766"
                 style="fill:none;stroke:#1a1a1a;stroke-width:5;stroke-linecap:butt;stroke-linejoin:miter;stroke-miterlimit:10;stroke-dasharray:none;stroke-opacity:0"
                 id="path1004" /></g><g
               id="g1006"
               transform="translate(241.2595,787.7004)"><path
                 d="M 0,0 29.196,14.08"
                 style="fill:none;stroke:#1a1a1a;stroke-width:5;stroke-linecap:butt;stroke-linejoin:miter;stroke-miterlimit:10;stroke-dasharray:none;stroke-opacity:0"
                 id="path1008" /></g><g
               id="g1010"
               transform="translate(552.2124,947.9676)"><path
                 d="M 0,0 31.956,58.096 115.714,12.508 98.009,-22.02"
                 style="fill:none;stroke:#1a1a1a;stroke-width:5;stroke-linecap:butt;stroke-linejoin:miter;stroke-miterlimit:10;stroke-dasharray:none;stroke-opacity:0"
                 id="path1012" /></g><g
               id="g1014"
               transform="translate(579.7098,994.7592)"><path
                 d="M 0,0 83.819,-46.058"
                 style="fill:none;stroke:#1a1a1a;stroke-width:5;stroke-linecap:butt;stroke-linejoin:miter;stroke-miterlimit:10;stroke-dasharray:none;stroke-opacity:0"
                 id="path1016" /></g><g
               id="g1018"
               transform="translate(573.3115,985.1616)"><path
                 d="M 0,0 83.819,-46.058"
                 style="fill:none;stroke:#1a1a1a;stroke-width:5;stroke-linecap:butt;stroke-linejoin:miter;stroke-miterlimit:10;stroke-dasharray:none;stroke-opacity:0"
                 id="path1020" /></g><g
               id="g1022"
               transform="translate(566.9131,973.4312)"><path
                 d="M 0,0 83.819,-46.058"
                 style="fill:none;stroke:#1a1a1a;stroke-width:5;stroke-linecap:butt;stroke-linejoin:miter;stroke-miterlimit:10;stroke-dasharray:none;stroke-opacity:0"
                 id="path1024" /></g><g
               id="g1026"
               transform="translate(558.3819,961.7008)"><path
                 d="M 0,0 54.579,-27.086"
                 style="fill:none;stroke:#1a1a1a;stroke-width:5;stroke-linecap:butt;stroke-linejoin:miter;stroke-miterlimit:10;stroke-dasharray:none;stroke-opacity:0"
                 id="path1028" /></g><g
               id="g1030"
               transform="translate(1067.2471,558.1763)"><path
                 d="m 0,0 54.386,-10.664 -2.132,-11.73 c 0,0 -27.727,-21.328 -55.453,7.464 z"
                 style="fill:none;stroke:#1a1a1a;stroke-width:5;stroke-linecap:butt;stroke-linejoin:miter;stroke-miterlimit:10;stroke-dasharray:none;stroke-opacity:0"
                 id="path1032" /></g><g
               id="g1034"
               transform="translate(1054.201,677.0024)"><path
                 d="M 0,0 122.885,-47.253 98.369,-166.87"
                 style="fill:none;stroke:#1a1a1a;stroke-width:5;stroke-linecap:butt;stroke-linejoin:miter;stroke-miterlimit:10;stroke-dasharray:none;stroke-opacity:0"
                 id="path1036" /></g><g
               id="g1038"
               transform="translate(959.8281,531.5164)"><path
                 d="M 0,0 37.488,-21.885"
                 style="fill:none;stroke:#1a1a1a;stroke-width:5;stroke-linecap:butt;stroke-linejoin:miter;stroke-miterlimit:10;stroke-dasharray:none;stroke-opacity:0"
                 id="path1040" /></g><g
               id="g1042"
               transform="translate(991.5327,533.6492)"><path
                 d="M 0,0 12.377,-5.91"
                 style="fill:none;stroke:#1a1a1a;stroke-width:5;stroke-linecap:butt;stroke-linejoin:miter;stroke-miterlimit:10;stroke-dasharray:none;stroke-opacity:0"
                 id="path1044" /></g><g
               id="g1046"
               transform="translate(991.5327,670.6184)"><path
                 d="M 0,0 -1.184,-60.518"
                 style="fill:none;stroke:#1a1a1a;stroke-width:5;stroke-linecap:butt;stroke-linejoin:miter;stroke-miterlimit:10;stroke-dasharray:none;stroke-opacity:0"
                 id="path1048" /></g><g
               id="g1050"
               transform="translate(1021.2426,670.6184)"><path
                 d="M 0,0 -2.63,-142.301"
                 style="fill:none;stroke:#1a1a1a;stroke-width:5;stroke-linecap:butt;stroke-linejoin:miter;stroke-miterlimit:10;stroke-dasharray:none;stroke-opacity:0"
                 id="path1052" /></g><g
               id="g1054"
               transform="translate(1089.6584,663.3681)"><path
                 d="M 0,0 -28.81,-140.503"
                 style="fill:none;stroke:#1a1a1a;stroke-width:5;stroke-linecap:butt;stroke-linejoin:miter;stroke-miterlimit:10;stroke-dasharray:none;stroke-opacity:0"
                 id="path1056" /></g><g
               id="g1058"
               transform="translate(1134.2021,647.47)"><path
                 d="M 0,0 -15.359,-133.141"
                 style="fill:none;stroke:#1a1a1a;stroke-width:5;stroke-linecap:butt;stroke-linejoin:miter;stroke-miterlimit:10;stroke-dasharray:none;stroke-opacity:0"
                 id="path1060" /></g><g
               id="g1062"
               transform="translate(1379.3276,527.739)"><path
                 d="m 0,0 c 0,0 -66.31,-14.067 -61.76,-79.259 0,0 11.262,-60.545 87.885,-51.672"
                 style="fill:none;stroke:#1a1a1a;stroke-width:5;stroke-linecap:butt;stroke-linejoin:miter;stroke-miterlimit:10;stroke-dasharray:none;stroke-opacity:0"
                 id="path1064" /></g><g
               id="g1066"
               transform="translate(1450.0276,498.347)"><path
                 d="M 0,0 184.464,-36.518 268.789,-141.72"
                 style="fill:none;stroke:#1a1a1a;stroke-width:5;stroke-linecap:butt;stroke-linejoin:miter;stroke-miterlimit:10;stroke-dasharray:none;stroke-opacity:0"
                 id="path1068" /></g><g
               id="g1070"
               transform="translate(1634.4919,461.8295)"><path
                 d="M 0,0 88.59,57.956"
                 style="fill:none;stroke:#1a1a1a;stroke-width:5;stroke-linecap:butt;stroke-linejoin:miter;stroke-miterlimit:10;stroke-dasharray:none;stroke-opacity:0"
                 id="path1072" /></g><g
               id="g1074"
               transform="translate(1460.7483,556.0435)"><path
                 d="m 0,0 -12.49,-65.236 22.088,-4.08 -11.044,-59.774 36.637,-6.082 v -16.336 l 41.59,-4.186 v -15.418 l 50.092,-10.618 -7.97,-8.985"
                 style="fill:none;stroke:#1a1a1a;stroke-width:5;stroke-linecap:butt;stroke-linejoin:miter;stroke-miterlimit:10;stroke-dasharray:none;stroke-opacity:0"
                 id="path1076" /></g><g
               id="g1078"
               transform="translate(123.4839,400.3493)"><path
                 d="M 0,0 H 11.73 L 22.65,55.453 H -1.066 l -7.465,-268.733 -16.273,-3.891 -26.938,-57.722 148.379307,-51.881 47.865693,44.258 -10.137,11.435 4.266,8.747 c 0,0 -72.515,58.652 -145.03,49.054"
                 style="fill:none;stroke:#1a1a1a;stroke-width:5;stroke-linecap:butt;stroke-linejoin:miter;stroke-miterlimit:10;stroke-dasharray:none;stroke-opacity:0"
                 id="path1080"
                 sodipodi:nodetypes="cccccccccccc" /></g><g
               id="g1082"
               transform="translate(142.6882,438.3035)"><path
                 d="m 0,0 38.381,-2.763 -4.265,-38.39 h 15.19 L 81.037,4.702 H 92.325 L 77.838,-62.901 50.112,-42.22"
                 style="fill:none;stroke:#1a1a1a;stroke-width:5;stroke-linecap:butt;stroke-linejoin:miter;stroke-miterlimit:10;stroke-dasharray:none;stroke-opacity:0"
                 id="path1084" /></g><g
               id="g1086"
               transform="translate(232.8806,424.9559)"><path
                 d="M 0,0 24.97,-9.677"
                 style="fill:none;stroke:#1a1a1a;stroke-width:5;stroke-linecap:butt;stroke-linejoin:miter;stroke-miterlimit:10;stroke-dasharray:none;stroke-opacity:0"
                 id="path1088" /></g><g
               id="g1090"
               transform="translate(253.5846,399.2829)"><path
                 d="M 0,0 18.129,47.988 H 28.804 L 21.328,-5.332 Z"
                 style="fill:none;stroke:#1a1a1a;stroke-width:5;stroke-linecap:butt;stroke-linejoin:miter;stroke-miterlimit:10;stroke-dasharray:none;stroke-opacity:0"
                 id="path1092" /></g><g
               id="g1094"
               transform="translate(276.5511,405.6364)"><path
                 d="M 0,0 21.629,-11.685"
                 style="fill:none;stroke:#1a1a1a;stroke-width:5;stroke-linecap:butt;stroke-linejoin:miter;stroke-miterlimit:10;stroke-dasharray:none;stroke-opacity:0"
                 id="path1096" /></g><g
               id="g1098"
               transform="translate(294.1078,386.4861)"><path
                 d="M 0,0 24.947,28.793 30.926,25.594 19.195,-9.598 0,1.804"
                 style="fill:none;stroke:#1a1a1a;stroke-width:5;stroke-linecap:butt;stroke-linejoin:miter;stroke-miterlimit:10;stroke-dasharray:none;stroke-opacity:0"
                 id="path1100" /></g><g
               id="g1102"
               transform="translate(114.9528,281.979)"><path
                 d="m 0,0 -19.195,-2.133 11.73,-70.382 H 0"
                 style="fill:none;stroke:#1a1a1a;stroke-width:5;stroke-linecap:butt;stroke-linejoin:miter;stroke-miterlimit:10;stroke-dasharray:none;stroke-opacity:0"
                 id="path1104" /></g><g
               id="g1106"
               transform="translate(121.3512,301.1742)"><path
                 d="M 0,0 H 43.961 L 48.513,30.665 0,33.932"
                 style="fill:none;stroke:#1a1a1a;stroke-width:5;stroke-linecap:butt;stroke-linejoin:miter;stroke-miterlimit:10;stroke-dasharray:none;stroke-opacity:0"
                 id="path1108" /></g><g
               id="g1110"
               transform="translate(142.6882,424.9559)"><path
                 d="M 0,0 H 35.148"
                 style="fill:none;stroke:#1a1a1a;stroke-width:5;stroke-linecap:butt;stroke-linejoin:miter;stroke-miterlimit:10;stroke-dasharray:none;stroke-opacity:0"
                 id="path1112" /></g><g
               id="g1114"
               transform="translate(137.5842,412.3841)"><path
                 d="M 0,0 H 40.252"
                 style="fill:none;stroke:#1a1a1a;stroke-width:5;stroke-linecap:butt;stroke-linejoin:miter;stroke-miterlimit:10;stroke-dasharray:none;stroke-opacity:0"
                 id="path1116" /></g><g
               id="g1118"
               transform="translate(135.2143,400.3493)"><path
                 d="M 0,0 40.444,-0.556"
                 style="fill:none;stroke:#1a1a1a;stroke-width:5;stroke-linecap:butt;stroke-linejoin:miter;stroke-miterlimit:10;stroke-dasharray:none;stroke-opacity:0"
                 id="path1120" /></g><g
               id="g1122"
               transform="translate(121.3512,388.2899)"><path
                 d="m 0,0 94.966,-11.401 81.863,-25.628 62.26,-33.121"
                 style="fill:none;stroke:#1a1a1a;stroke-width:5;stroke-linecap:butt;stroke-linejoin:miter;stroke-miterlimit:10;stroke-dasharray:none;stroke-opacity:0"
                 id="path1124" /></g><g
               id="g1126"
               transform="translate(325.0334,338.5549)"><path
                 d="M 0,0 23.461,26.603"
                 style="fill:none;stroke:#1a1a1a;stroke-width:5;stroke-linecap:butt;stroke-linejoin:miter;stroke-miterlimit:10;stroke-dasharray:none;stroke-opacity:0"
                 id="path1128" /></g><g
               id="g1130"
               transform="translate(333.2515,347.8738)"><path
                 d="M 0,0 35.732,-22.09"
                 style="fill:none;stroke:#1a1a1a;stroke-width:5;stroke-linecap:butt;stroke-linejoin:miter;stroke-miterlimit:10;stroke-dasharray:none;stroke-opacity:0"
                 id="path1132" /></g><g
               id="g1134"
               transform="translate(340.9329,356.5841)"><path
                 d="M 0,0 35.221,-21.478"
                 style="fill:none;stroke:#1a1a1a;stroke-width:5;stroke-linecap:butt;stroke-linejoin:miter;stroke-miterlimit:10;stroke-dasharray:none;stroke-opacity:0"
                 id="path1136" /></g><g
               id="g1138"
               transform="translate(121.3512,373.4057)"><path
                 d="m 0,0 c 0,0 89.124,0.906 141.071,-25.532 0,0 53.125,-17.549 91.46,-41.722"
                 style="fill:none;stroke:#1a1a1a;stroke-width:5;stroke-linecap:butt;stroke-linejoin:miter;stroke-miterlimit:10;stroke-dasharray:none;stroke-opacity:0"
                 id="path1140" /></g><g
               id="g1142"
               transform="translate(119.7965,361.4446)"><path
                 d="m 0,0 c 0,0 102.409,-3.071 142.626,-26.339 0,0 75.59,-31.881 83.497,-39.305"
                 style="fill:none;stroke:#1a1a1a;stroke-width:5;stroke-linecap:butt;stroke-linejoin:miter;stroke-miterlimit:10;stroke-dasharray:none;stroke-opacity:0"
                 id="path1144" /></g><g
               id="g1146"
               transform="translate(119.7965,347.8738)"><path
                 d="M 0,0 C 0,0 104.995,-2.977 135.921,-24.305"
                 style="fill:none;stroke:#1a1a1a;stroke-width:5;stroke-linecap:butt;stroke-linejoin:miter;stroke-miterlimit:10;stroke-dasharray:none;stroke-opacity:0"
                 id="path1148" /></g><g
               id="g1150"
               transform="translate(284.5102,312.9046)"><path
                 d="M 0,0 52.254,-26.263"
                 style="fill:none;stroke:#1a1a1a;stroke-width:5;stroke-linecap:butt;stroke-linejoin:miter;stroke-miterlimit:10;stroke-dasharray:none;stroke-opacity:0"
                 id="path1152" /></g><g
               id="g1154"
               transform="translate(169.8642,331.8388)"><path
                 d="m 0,0 c 0,0 124.244,-22.133 160.501,-56.258 l 53.32,69.316 -35.191,20.261 6.863,5.332 -17.527,11.731 -22.394,-40.523 -17.256,6.659 11.39,28.532"
                 style="fill:none;stroke:#1a1a1a;stroke-width:5;stroke-linecap:butt;stroke-linejoin:miter;stroke-miterlimit:10;stroke-dasharray:none;stroke-opacity:0"
                 id="path1156" /></g><g
               id="g1158"
               transform="translate(253.5846,311.5591)"><path
                 d="M 0,0 6.296,23.547"
                 style="fill:none;stroke:#1a1a1a;stroke-width:5;stroke-linecap:butt;stroke-linejoin:miter;stroke-miterlimit:10;stroke-dasharray:none;stroke-opacity:0"
                 id="path1160" /></g><g
               id="g1162"
               transform="translate(279.0092,303.0374)"><path
                 d="M 0,0 8.357,22.746"
                 style="fill:none;stroke:#1a1a1a;stroke-width:5;stroke-linecap:butt;stroke-linejoin:miter;stroke-miterlimit:10;stroke-dasharray:none;stroke-opacity:0"
                 id="path1164" /></g><g
               id="g1166"
               transform="translate(207.7295,290.5102)"><path
                 d="m 0,0 2.779,12.527 c 0,0 80.4,-27.457 89.998,-37.054 l -6.399,-11.651 -34.227,17.788 -8.429,-16.801 -10.556,2.643 4.101,20.723 z"
                 style="fill:none;stroke:#1a1a1a;stroke-width:5;stroke-linecap:butt;stroke-linejoin:miter;stroke-miterlimit:10;stroke-dasharray:none;stroke-opacity:0"
                 id="path1168" /></g><g
               id="g1170"
               transform="translate(119.7965,286.6417)"><path
                 d="M 0,0 C 0,0 100.945,-2.598 121.099,-20.693"
                 style="fill:none;stroke:#1a1a1a;stroke-width:5;stroke-linecap:butt;stroke-linejoin:miter;stroke-miterlimit:10;stroke-dasharray:none;stroke-opacity:0"
                 id="path1172" /></g><g
               id="g1174"
               transform="translate(255.7174,260.651)"><path
                 d="M 0,0 49.054,-26.66"
                 style="fill:none;stroke:#1a1a1a;stroke-width:5;stroke-linecap:butt;stroke-linejoin:miter;stroke-miterlimit:10;stroke-dasharray:none;stroke-opacity:0"
                 id="path1176" /></g><g
               id="g1178"
               transform="translate(117.4114,275.5806)"><path
                 d="m 0,0 c 0,0 91.384,-4.266 123.484,-23.79 l 47.88,-24.198"
                 style="fill:none;stroke:#1a1a1a;stroke-width:5;stroke-linecap:butt;stroke-linejoin:miter;stroke-miterlimit:10;stroke-dasharray:none;stroke-opacity:0"
                 id="path1180" /></g><g
               id="g1182"
               transform="translate(117.4114,260.651)"><path
                 d="m 0,0 c 0,0 76.455,-1.066 104.714,-14.93 l 58.119,-26.603"
                 style="fill:none;stroke:#1a1a1a;stroke-width:5;stroke-linecap:butt;stroke-linejoin:miter;stroke-miterlimit:10;stroke-dasharray:none;stroke-opacity:0"
                 id="path1184" /></g><g
               id="g1186"
               transform="translate(117.4114,249.2496)"><path
                 d="M 0,0 C 0,0 108.109,-2.553 161.598,-43.564"
                 style="fill:none;stroke:#1a1a1a;stroke-width:5;stroke-linecap:butt;stroke-linejoin:miter;stroke-miterlimit:10;stroke-dasharray:none;stroke-opacity:0"
                 id="path1188" /></g><g
               id="g1190"
               transform="translate(116.3669,237.9788)"><path
                 d="M 0,0 C 0,0 77.577,2.365 160.184,-48.266"
                 style="fill:none;stroke:#1a1a1a;stroke-width:5;stroke-linecap:butt;stroke-linejoin:miter;stroke-miterlimit:10;stroke-dasharray:none;stroke-opacity:0"
                 id="path1192" /></g><g
               id="g1194"
               transform="translate(244.9967,278.6847)"><path
                 d="M 0,0 V 12.016"
                 style="fill:none;stroke:#1a1a1a;stroke-width:5;stroke-linecap:butt;stroke-linejoin:miter;stroke-miterlimit:10;stroke-dasharray:none;stroke-opacity:0"
                 id="path1196" /></g><g
               id="g1198"
               transform="translate(259.8809,272.1205)"><path
                 d="M 0,0 7.797,9.859"
                 style="fill:none;stroke:#1a1a1a;stroke-width:5;stroke-linecap:butt;stroke-linejoin:miter;stroke-miterlimit:10;stroke-dasharray:none;stroke-opacity:0"
                 id="path1200" /></g><g
               id="g1202"
               transform="translate(812.7748,815.2487)"><path
                 d="M 0,0 -9.717,-126.96"
                 style="fill:none;stroke:#1a1a1a;stroke-width:5;stroke-linecap:butt;stroke-linejoin:miter;stroke-miterlimit:10;stroke-dasharray:none;stroke-opacity:0"
                 id="path1204" /></g><g
               id="g1206"
               transform="translate(878.4944,793.2453)"><path
                 d="M 0,0 -5.865,-110.591"
                 style="fill:none;stroke:#1a1a1a;stroke-width:5;stroke-linecap:butt;stroke-linejoin:miter;stroke-miterlimit:10;stroke-dasharray:none;stroke-opacity:0"
                 id="path1208" /></g><g
               id="g1210"
               transform="translate(908.9401,781.0924)"><path
                 d="M 0,0 -4.852,-98.438"
                 style="fill:none;stroke:#1a1a1a;stroke-width:5;stroke-linecap:butt;stroke-linejoin:miter;stroke-miterlimit:10;stroke-dasharray:none;stroke-opacity:0"
                 id="path1212" /></g><g
               id="g1214"
               transform="translate(982.4026,751.7686)"><path
                 d="M 0,0 -3.831,-77.694"
                 style="fill:none;stroke:#1a1a1a;stroke-width:5;stroke-linecap:butt;stroke-linejoin:miter;stroke-miterlimit:10;stroke-dasharray:none;stroke-opacity:0"
                 id="path1216" /></g><g
               id="g1218"
               transform="translate(1016.7888,738.0427)"><path
                 d="M 0,0 -2.215,-63.969"
                 style="fill:none;stroke:#1a1a1a;stroke-width:5;stroke-linecap:butt;stroke-linejoin:miter;stroke-miterlimit:10;stroke-dasharray:none;stroke-opacity:0"
                 id="path1220" /></g><g
               id="g1222"
               transform="translate(1463.0139,579.3715)"><path
                 d="m 0,0 -16.756,-86.564 22.088,-4.08 -11.044,-59.774 36.638,-6.082 v -16.336 l 41.589,-4.186 v -15.418 l 50.093,-10.618 -7.97,-8.985 84.779,-12.967 -5.332,-29.859 53.32,-9.598 6.398,43.722 52.1207,-9.4643 25.463,98.91065 -42.12059,5.05508 9.83009,66.83921 -31.138,4.167068 7.59434,58.6958298 L 230.342,11.73 222.877,-39.457 Z"
                 style="fill:#1a1a1a;fill-opacity:0;fill-rule:nonzero;stroke:none"
                 id="visitorcenter"
                 sodipodi:nodetypes="ccccccccccccccccccccccc" /></g><g
               id="g1226"
               transform="translate(1045.6615,541.5164)"><path
                 d="m 0,0 -23.461,-41.59 24.527,-118.37 95.976,-14.929 63.984,98.108 -9.597,51.187 z"
                 style="fill:#1a1a1a;fill-opacity:0;fill-rule:nonzero;stroke:none"
                 id="virtualmuseum" /></g><g
               id="g1230"
               transform="translate(823,669.4802)"><path
                 d="m -3.4560481,-6.3563343 -0.1648232,-139.1204957 225.3603413,11.79322 6.587,65.827997 z"
                 style="fill:#1a1a1a;fill-opacity:0;fill-rule:nonzero;stroke:none"
                 id="hall2"
                 sodipodi:nodetypes="ccccc" /></g><g
               id="g1234"
               transform="translate(837.1774,817.9753)"><path
                 d="M -4.8051575,-0.54804566 277.472,-106.243 l -4.051,-53.717 -287.598,24.527 z"
                 style="fill:#1a1a1a;fill-opacity:0;fill-rule:nonzero;stroke:none"
                 id="hall1"
                 sodipodi:nodetypes="ccccc" /></g><g
               id="g1238"
               transform="translate(605.446,932.6112)"><path
                 d="m 0,0 -44.789,-79.98 200.483,-105.573 69.316,62.917 17.063,68.25 z"
                 style="fill:#1a1a1a;fill-opacity:0;fill-rule:nonzero;stroke:none"
                 id="hall5" /></g><g
               id="g1242"
               transform="translate(354.7134,797.1121)"><path
                 d="m 0,0 94.91,45.855 145.03,-10.664 4.617,-29.859 31.64,-23.461 c 0,0 0.204,-100.023 -12.853,-120.503 l -33.002,-18.129 -6.398,-24.107 -145.03,11.311 -89.578,65.05 z"
                 style="fill:#1a1a1a;fill-opacity:0;fill-rule:nonzero;stroke:none"
                 id="audi" /></g><g
               id="g1246"
               transform="translate(512.5364,594.3675)"><path
                 d="M 0,0 238.998,74.648 261.869,0 65.05,-111.972 Z"
                 style="fill:#1a1a1a;fill-opacity:0;fill-rule:nonzero;stroke:none"
                 id="hall4" /></g><g
               id="g1250"
               transform="translate(608.756,438.9002)"><path
                 d="m 0,0 173.25286,139.34964 71.74036,-103.683889 -135.92507,-92.701 z"
                 style="fill:#1a1a1a;fill-opacity:0;fill-rule:nonzero;stroke:none"
                 id="hall3"
                 sodipodi:nodetypes="ccccc" /></g><g
               id="g1254"
               transform="translate(123,435)"><path
                 d="m 0,0 -8,-249 -26,-2 -15,-58 146.121207,-52.4247 47.756263,41.91482 -19,17 L 252,-108 C 252,-108 173,22 0,0"
                 style="fill:#1a1a1a;fill-opacity:0;fill-rule:nonzero;stroke:none"
                 id="openair"
                 sodipodi:nodetypes="ccccccccc" /></g><g
               id="g1258"
               transform="translate(330,877)"><path
                 d="M 0,0 -55.468,55.611 -27.734,75.362 -55,137 57,171 85,100 104,104 141,28.383 67.085,0 42.766,24.298 Z"
                 style="fill:#1a1a1a;fill-opacity:0;fill-rule:nonzero;stroke:none"
                 id="canteen" /></g><g
               id="g1262"
               transform="translate(847.5186,824.7021)"><path
                 d="m 0,0 42.481,-17.702 22,49 -46,27 z"
                 style="fill:#1a1a1a;fill-opacity:0;fill-rule:nonzero;stroke:none"
                 id="path1264" /></g><g
               id="g1266"
               transform="translate(370.766,845)"><path
                 d="m 0,0 -16.021,32 -100.745,-47 -6.489,-12.025 25.021,-10.975 -9.532,-103 66.452962,-45.00354 15.142944,168.194132 z"
                 style="fill:#1a1a1a;fill-opacity:0;fill-rule:nonzero;stroke:none"
                 id="toilet"
                 sodipodi:nodetypes="ccccccccc" /></g><g
               id="g1270"
               transform="translate(654.9177,921.4964)"><path
                 d="M 0,0 -47.162,-88.662"
                 style="fill:none;stroke:#000000;stroke-width:4;stroke-linecap:butt;stroke-linejoin:miter;stroke-miterlimit:10;stroke-dasharray:none;stroke-opacity:0"
                 id="path1272" /></g><g
               id="g1274"
               transform="translate(868.7411,801.8731)"><path
                 d="M 0,0 -11.563,-123.19"
                 style="fill:none;stroke:#000000;stroke-width:4;stroke-linecap:butt;stroke-linejoin:miter;stroke-miterlimit:10;stroke-dasharray:none;stroke-opacity:0"
                 id="path1276" /></g><g
               id="g1278"
               transform="translate(856.5186,655.0425)"><path
                 d="M 0,0 -7.519,-125.627"
                 style="fill:none;stroke:#000000;stroke-width:4;stroke-linecap:butt;stroke-linejoin:miter;stroke-miterlimit:10;stroke-dasharray:none;stroke-opacity:0"
                 id="path1280" /></g><g
               id="g1282"
               transform="translate(1449,507)"><path
                 d="M 0,0 185.362,-40.492 273.136,21"
                 style="fill:none;stroke:#000000;stroke-width:4;stroke-linecap:butt;stroke-linejoin:miter;stroke-miterlimit:10;stroke-dasharray:none;stroke-opacity:0"
                 id="path1284" /></g><g
               id="g1286"
               transform="translate(1714.0212,366.6269)"><path
                 d="M 0,0 -79.66,99.881"
                 style="fill:none;stroke:#000000;stroke-width:4;stroke-linecap:butt;stroke-linejoin:miter;stroke-miterlimit:10;stroke-dasharray:none;stroke-opacity:0"
                 id="path1288" /></g></g></g></g></g></g></svg>
